ffmpeg version git-2026-04-19-de18feb Copyright (c) 2000-2026 the FFmpeg developers
  built with gcc 9 (Ubuntu 9.4.0-1ubuntu1~20.04.2)
  configuration: --enable-shared --enable-gpl --enable-libx264
  libavutil      60. 30.100 / 60. 30.100
  libavcodec     62. 30.100 / 62. 30.100
  libavformat    62. 13.102 / 62. 13.102
  libavdevice    62.  4.100 / 62.  4.100
  libavfilter    11. 15.101 / 11. 15.101
  libswscale      9.  7.100 /  9.  7.100
  libswresample   6.  4.100 /  6.  4.100
[in#0/x11grab @ 0x55a34c95cc40] Stream #0: not enough frames to estimate rate; consider increasing probesize
Input #0, x11grab, from ':0.0+0,0':
  Duration: N/A, start: 1777387687.166070, bitrate: 3678192 kb/s
  Stream #0:0: Video: rawvideo (BGR[0] / 0x524742), bgr0, 2870x1602, 3678192 kb/s, 25 fps, 1000k tbr, 1000k tbn, start 1777387687.166070
Stream mapping:
  Stream #0:0 -> #0:0 (rawvideo (native) -> h264 (libx264))
[libx264 @ 0x55a34c96af00] using cpu capabilities: MMX2 SSE2Fast SSSE3 SSE4.2 AVX FMA3 BMI2 AVX2
[libx264 @ 0x55a34c96af00] profile High, level 5.0
[libx264 @ 0x55a34c96af00] 264 - core 155 r2917 0a84d98 - H.264/MPEG-4 AVC codec - Copyleft 2003-2018 - http://www.videolan.org/x264.html - options: cabac=1 ref=1 deblock=1:0:0 analyse=0x3:0x113 me=hex subme=2 psy=1 psy_rd=1.00:0.00 mixed_ref=0 me_range=16 chroma_me=1 trellis=0 8x8dct=1 cqm=0 deadzone=21,11 fast_pskip=1 chroma_qp_offset=0 threads=6 lookahead_threads=2 sliced_threads=0 nr=0 decimate=1 interlaced=0 bluray_compat=0 constrained_intra=0 bframes=3 b_pyramid=2 b_adapt=1 b_bias=0 direct=1 weightb=1 open_gop=0 weightp=1 keyint=250 keyint_min=25 scenecut=40 intra_refresh=0 rc_lookahead=10 rc=crf mbtree=1 crf=23.0 qcomp=0.60 qpmin=0 qpmax=69 qpstep=4 ip_ratio=1.40 aq=1:1.00
Output #0, matroska, to '/home/lmy/catkin_ws/recordings_tmp/exp_10_segment_v3/screen.mkv':
  Metadata:
    encoder         : Lavf62.13.102
  Stream #0:0: Video: h264 (H264 / 0x34363248), yuv420p(tv, progressive), 2870x1602, q=2-31, 25 fps, 1k tbn
    Metadata:
      encoder         : Lavc62.30.100 libx264
    Side data:
      CPB properties: bitrate max/min/avg: 0/0/0 buffer size: 0 vbv_delay: N/A
frame=    0 fps=0.0 q=0.0 size=       0KiB time=N/A bitrate=N/A speed=N/A elapsed=0:00:00.50    frame=    5 fps=5.0 q=28.0 size=       1KiB time=00:00:00.16 bitrate=  29.7kbits/s speed=0.159x elapsed=0:00:01.00    frame=   18 fps= 12 q=28.0 size=       1KiB time=00:00:00.64 bitrate=   7.4kbits/s speed=0.423x elapsed=0:00:01.51    frame=   31 fps= 15 q=28.0 size=       1KiB time=00:00:01.16 bitrate=   4.1kbits/s speed=0.575x elapsed=0:00:02.01    frame=   44 fps= 17 q=28.0 size=       1KiB time=00:00:01.68 bitrate=   2.8kbits/s speed=0.667x elapsed=0:00:02.52    frame=   56 fps= 19 q=28.0 size=       1KiB time=00:00:02.16 bitrate=   2.2kbits/s speed=0.715x elapsed=0:00:03.02    frame=   68 fps= 19 q=28.0 size=       1KiB time=00:00:02.64 bitrate=   1.8kbits/s speed=0.749x elapsed=0:00:03.52    frame=   81 fps= 20 q=28.0 size=       1KiB time=00:00:03.16 bitrate=   1.5kbits/s speed=0.785x elapsed=0:00:04.02    frame=   94 fps= 21 q=28.0 size=       1KiB time=00:00:03.68 bitrate=   1.3kbits/s speed=0.813x elapsed=0:00:04.52    frame=  106 fps= 21 q=28.0 size=       1KiB time=00:00:04.16 bitrate=   1.1kbits/s speed=0.828x elapsed=0:00:05.02    frame=  119 fps= 22 q=28.0 size=       1KiB time=00:00:04.68 bitrate=   1.0kbits/s speed=0.847x elapsed=0:00:05.52    frame=  131 fps= 22 q=28.0 size=     156KiB time=00:00:05.16 bitrate= 247.1kbits/s speed=0.856x elapsed=0:00:06.02    frame=  144 fps= 22 q=28.0 size=     156KiB time=00:00:05.68 bitrate= 224.5kbits/s speed=0.87x elapsed=0:00:06.52    frame=  156 fps= 22 q=28.0 size=     156KiB time=00:00:06.16 bitrate= 207.0kbits/s speed=0.877x elapsed=0:00:07.02    frame=  168 fps= 22 q=28.0 size=     156KiB time=00:00:06.64 bitrate= 192.0kbits/s speed=0.882x elapsed=0:00:07.52    frame=  182 fps= 23 q=28.0 size=     156KiB time=00:00:07.20 bitrate= 177.1kbits/s speed=0.897x elapsed=0:00:08.02    frame=  194 fps= 23 q=28.0 size=     156KiB time=00:00:07.68 bitrate= 166.0kbits/s speed=0.901x elapsed=0:00:08.52    frame=  206 fps= 23 q=28.0 size=     156KiB time=00:00:08.16 bitrate= 156.2kbits/s speed=0.904x elapsed=0:00:09.02    frame=  219 fps= 23 q=28.0 size=     156KiB time=00:00:08.68 bitrate= 146.9kbits/s speed=0.911x elapsed=0:00:09.52    frame=  231 fps= 23 q=28.0 size=     156KiB time=00:00:09.16 bitrate= 139.2kbits/s speed=0.913x elapsed=0:00:10.02    frame=  244 fps= 23 q=28.0 size=     156KiB time=00:00:09.68 bitrate= 131.7kbits/s speed=0.919x elapsed=0:00:10.52    frame=  256 fps= 23 q=28.0 size=     256KiB time=00:00:10.16 bitrate= 206.4kbits/s speed=0.921x elapsed=0:00:11.02    frame=  269 fps= 23 q=28.0 size=     256KiB time=00:00:10.68 bitrate= 196.4kbits/s speed=0.926x elapsed=0:00:11.52    frame=  281 fps= 23 q=28.0 size=     256KiB time=00:00:11.16 bitrate= 187.9kbits/s speed=0.928x elapsed=0:00:12.02    frame=  294 fps= 23 q=28.0 size=     256KiB time=00:00:11.68 bitrate= 179.6kbits/s speed=0.932x elapsed=0:00:12.52    frame=  306 fps= 23 q=28.0 size=     256KiB time=00:00:12.20 bitrate= 171.9kbits/s speed=0.936x elapsed=0:00:13.03    frame=  319 fps= 24 q=28.0 size=     256KiB time=00:00:12.68 bitrate= 165.4kbits/s speed=0.937x elapsed=0:00:13.53    frame=  332 fps= 24 q=28.0 size=     256KiB time=00:00:13.20 bitrate= 158.9kbits/s speed=0.941x elapsed=0:00:14.03    frame=  344 fps= 24 q=28.0 size=     256KiB time=00:00:13.68 bitrate= 153.3kbits/s speed=0.941x elapsed=0:00:14.53    frame=  355 fps= 24 q=28.0 size=     256KiB time=00:00:14.12 bitrate= 148.5kbits/s speed=0.939x elapsed=0:00:15.03    frame=  369 fps= 24 q=28.0 size=     256KiB time=00:00:14.68 bitrate= 142.9kbits/s speed=0.945x elapsed=0:00:15.53    frame=  382 fps= 24 q=28.0 size=     256KiB time=00:00:15.20 bitrate= 138.0kbits/s speed=0.948x elapsed=0:00:16.03    frame=  394 fps= 24 q=28.0 size=     256KiB time=00:00:15.68 bitrate= 133.7kbits/s speed=0.948x elapsed=0:00:16.53    frame=  407 fps= 24 q=28.0 size=     256KiB time=00:00:16.20 bitrate= 129.5kbits/s speed=0.951x elapsed=0:00:17.03    frame=  419 fps= 24 q=28.0 size=     256KiB time=00:00:16.68 bitrate= 125.7kbits/s speed=0.951x elapsed=0:00:17.53    frame=  431 fps= 24 q=28.0 size=     256KiB time=00:00:17.20 bitrate= 121.9kbits/s speed=0.954x elapsed=0:00:18.03    frame=  444 fps= 24 q=28.0 size=     256KiB time=00:00:17.68 bitrate= 118.6kbits/s speed=0.954x elapsed=0:00:18.53    frame=  457 fps= 24 q=28.0 size=     256KiB time=00:00:18.20 bitrate= 115.2kbits/s speed=0.956x elapsed=0:00:19.03    frame=  469 fps= 24 q=28.0 size=     256KiB time=00:00:18.68 bitrate= 112.3kbits/s speed=0.956x elapsed=0:00:19.53    frame=  482 fps= 24 q=28.0 size=     256KiB time=00:00:19.20 bitrate= 109.2kbits/s speed=0.958x elapsed=0:00:20.03    frame=  494 fps= 24 q=28.0 size=     256KiB time=00:00:19.68 bitrate= 106.6kbits/s speed=0.958x elapsed=0:00:20.54    frame=  506 fps= 24 q=28.0 size=     512KiB time=00:00:20.16 bitrate= 208.1kbits/s speed=0.958x elapsed=0:00:21.04    frame=  519 fps= 24 q=28.0 size=     512KiB time=00:00:20.68 bitrate= 202.8kbits/s speed=0.96x elapsed=0:00:21.54    frame=  532 fps= 24 q=28.0 size=     512KiB time=00:00:21.20 bitrate= 197.8kbits/s speed=0.962x elapsed=0:00:22.04    frame=  544 fps= 24 q=28.0 size=     512KiB time=00:00:21.68 bitrate= 193.5kbits/s speed=0.962x elapsed=0:00:22.54    frame=  557 fps= 24 q=28.0 size=     512KiB time=00:00:22.20 bitrate= 188.9kbits/s speed=0.963x elapsed=0:00:23.04    frame=  569 fps= 24 q=28.0 size=     512KiB time=00:00:22.68 bitrate= 184.9kbits/s speed=0.963x elapsed=0:00:23.54    frame=  582 fps= 24 q=28.0 size=     512KiB time=00:00:23.20 bitrate= 180.8kbits/s speed=0.965x elapsed=0:00:24.04    frame=  594 fps= 24 q=28.0 size=     512KiB time=00:00:23.68 bitrate= 177.1kbits/s speed=0.965x elapsed=0:00:24.54    frame=  607 fps= 24 q=28.0 size=     512KiB time=00:00:24.20 bitrate= 173.3kbits/s speed=0.966x elapsed=0:00:25.04    frame=  619 fps= 24 q=28.0 size=     512KiB time=00:00:24.68 bitrate= 169.9kbits/s speed=0.966x elapsed=0:00:25.54    frame=  632 fps= 24 q=28.0 size=     512KiB time=00:00:25.20 bitrate= 166.4kbits/s speed=0.968x elapsed=0:00:26.04    frame=  644 fps= 24 q=28.0 size=     512KiB time=00:00:25.68 bitrate= 163.3kbits/s speed=0.967x elapsed=0:00:26.54    frame=  657 fps= 24 q=28.0 size=     512KiB time=00:00:26.20 bitrate= 160.1kbits/s speed=0.969x elapsed=0:00:27.04    frame=  669 fps= 24 q=28.0 size=     512KiB time=00:00:26.68 bitrate= 157.2kbits/s speed=0.969x elapsed=0:00:27.54    frame=  682 fps= 24 q=28.0 size=     512KiB time=00:00:27.20 bitrate= 154.2kbits/s speed=0.97x elapsed=0:00:28.05    frame=  695 fps= 24 q=28.0 size=     512KiB time=00:00:27.72 bitrate= 151.3kbits/s speed=0.971x elapsed=0:00:28.55    frame=  707 fps= 24 q=28.0 size=     512KiB time=00:00:28.20 bitrate= 148.7kbits/s speed=0.971x elapsed=0:00:29.05    frame=  719 fps= 24 q=28.0 size=     512KiB time=00:00:28.68 bitrate= 146.2kbits/s speed=0.97x elapsed=0:00:29.55    frame=  732 fps= 24 q=28.0 size=     512KiB time=00:00:29.20 bitrate= 143.6kbits/s speed=0.972x elapsed=0:00:30.05    frame=  744 fps= 24 q=28.0 size=     512KiB time=00:00:29.72 bitrate= 141.1kbits/s speed=0.973x elapsed=0:00:30.55    frame=  757 fps= 24 q=28.0 size=     768KiB time=00:00:30.20 bitrate= 208.3kbits/s speed=0.973x elapsed=0:00:31.05    frame=  770 fps= 24 q=28.0 size=     768KiB time=00:00:30.72 bitrate= 204.8kbits/s speed=0.974x elapsed=0:00:31.55    frame=  782 fps= 24 q=28.0 size=     768KiB time=00:00:31.20 bitrate= 201.6kbits/s speed=0.973x elapsed=0:00:32.05    frame=  795 fps= 24 q=28.0 size=     768KiB time=00:00:31.72 bitrate= 198.3kbits/s speed=0.974x elapsed=0:00:32.55    frame=  807 fps= 24 q=28.0 size=     768KiB time=00:00:32.20 bitrate= 195.4kbits/s speed=0.974x elapsed=0:00:33.05    frame=  819 fps= 24 q=28.0 size=     768KiB time=00:00:32.68 bitrate= 192.5kbits/s speed=0.974x elapsed=0:00:33.55    frame=  832 fps= 24 q=28.0 size=     768KiB time=00:00:33.20 bitrate= 189.5kbits/s speed=0.975x elapsed=0:00:34.05    frame=  845 fps= 24 q=28.0 size=     768KiB time=00:00:33.72 bitrate= 186.6kbits/s speed=0.976x elapsed=0:00:34.55    frame=  857 fps= 24 q=28.0 size=     768KiB time=00:00:34.20 bitrate= 184.0kbits/s speed=0.976x elapsed=0:00:35.05    frame=  869 fps= 24 q=28.0 size=     768KiB time=00:00:34.68 bitrate= 181.4kbits/s speed=0.975x elapsed=0:00:35.56    frame=  882 fps= 24 q=28.0 size=     768KiB time=00:00:35.20 bitrate= 178.7kbits/s speed=0.976x elapsed=0:00:36.06    frame=  894 fps= 24 q=28.0 size=     768KiB time=00:00:35.68 bitrate= 176.3kbits/s speed=0.976x elapsed=0:00:36.56    frame=  907 fps= 24 q=28.0 size=     768KiB time=00:00:36.20 bitrate= 173.8kbits/s speed=0.977x elapsed=0:00:37.06    frame=  920 fps= 24 q=28.0 size=     768KiB time=00:00:36.72 bitrate= 171.3kbits/s speed=0.977x elapsed=0:00:37.56    frame=  933 fps= 25 q=28.0 size=     768KiB time=00:00:37.24 bitrate= 168.9kbits/s speed=0.978x elapsed=0:00:38.06    frame=  945 fps= 25 q=28.0 size=     768KiB time=00:00:37.72 bitrate= 166.8kbits/s speed=0.978x elapsed=0:00:38.56    frame=  957 fps= 24 q=28.0 size=     768KiB time=00:00:38.20 bitrate= 164.7kbits/s speed=0.978x elapsed=0:00:39.06    frame=  970 fps= 25 q=28.0 size=     768KiB time=00:00:38.72 bitrate= 162.5kbits/s speed=0.979x elapsed=0:00:39.57    frame=  983 fps= 25 q=28.0 size=     768KiB time=00:00:39.24 bitrate= 160.3kbits/s speed=0.979x elapsed=0:00:40.07    frame=  995 fps= 25 q=28.0 size=     768KiB time=00:00:39.72 bitrate= 158.4kbits/s speed=0.979x elapsed=0:00:40.57    frame= 1007 fps= 25 q=28.0 size=     768KiB time=00:00:40.20 bitrate= 156.5kbits/s speed=0.979x elapsed=0:00:41.07    frame= 1020 fps= 25 q=28.0 size=     768KiB time=00:00:40.72 bitrate= 154.5kbits/s speed=0.979x elapsed=0:00:41.57    frame= 1032 fps= 25 q=28.0 size=     768KiB time=00:00:41.20 bitrate= 152.7kbits/s speed=0.979x elapsed=0:00:42.07    frame= 1045 fps= 25 q=28.0 size=     768KiB time=00:00:41.72 bitrate= 150.8kbits/s speed=0.98x elapsed=0:00:42.57    frame= 1058 fps= 25 q=28.0 size=     768KiB time=00:00:42.24 bitrate= 148.9kbits/s speed=0.981x elapsed=0:00:43.07    frame= 1070 fps= 25 q=28.0 size=     768KiB time=00:00:42.72 bitrate= 147.3kbits/s speed=0.98x elapsed=0:00:43.57    frame= 1083 fps= 25 q=28.0 size=     768KiB time=00:00:43.24 bitrate= 145.5kbits/s speed=0.981x elapsed=0:00:44.07    frame= 1095 fps= 25 q=28.0 size=     768KiB time=00:00:43.72 bitrate= 143.9kbits/s speed=0.981x elapsed=0:00:44.57    frame= 1108 fps= 25 q=28.0 size=     768KiB time=00:00:44.24 bitrate= 142.2kbits/s speed=0.981x elapsed=0:00:45.07    frame= 1120 fps= 25 q=28.0 size=     768KiB time=00:00:44.72 bitrate= 140.7kbits/s speed=0.981x elapsed=0:00:45.57    frame= 1133 fps= 25 q=28.0 size=    1024KiB time=00:00:45.24 bitrate= 185.4kbits/s speed=0.982x elapsed=0:00:46.07    frame= 1145 fps= 25 q=28.0 size=    1024KiB time=00:00:45.72 bitrate= 183.5kbits/s speed=0.982x elapsed=0:00:46.57    frame= 1158 fps= 25 q=28.0 size=    1024KiB time=00:00:46.24 bitrate= 181.4kbits/s speed=0.982x elapsed=0:00:47.07    frame= 1170 fps= 25 q=28.0 size=    1024KiB time=00:00:46.72 bitrate= 179.6kbits/s speed=0.982x elapsed=0:00:47.57    frame= 1183 fps= 25 q=28.0 size=    1024KiB time=00:00:47.24 bitrate= 177.6kbits/s speed=0.983x elapsed=0:00:48.07    frame= 1195 fps= 25 q=28.0 size=    1024KiB time=00:00:47.72 bitrate= 175.8kbits/s speed=0.982x elapsed=0:00:48.58    frame= 1208 fps= 25 q=28.0 size=    1024KiB time=00:00:48.24 bitrate= 173.9kbits/s speed=0.983x elapsed=0:00:49.08    frame= 1220 fps= 25 q=28.0 size=    1024KiB time=00:00:48.72 bitrate= 172.2kbits/s speed=0.983x elapsed=0:00:49.58    frame= 1233 fps= 25 q=28.0 size=    1024KiB time=00:00:49.24 bitrate= 170.4kbits/s speed=0.983x elapsed=0:00:50.08    frame= 1245 fps= 25 q=28.0 size=    1024KiB time=00:00:49.72 bitrate= 168.7kbits/s speed=0.983x elapsed=0:00:50.58    [out#0/matroska @ 0x55a34c969500] Error writing trailer: Immediate exit requested
[out#0/matroska @ 0x55a34c969500] Error closing file: Immediate exit requested
[out#0/matroska @ 0x55a34c969500] video:1931KiB audio:0KiB subtitle:0KiB other streams:0KiB global headers:0KiB muxing overhead: unknown
frame= 1278 fps= 25 q=-1.0 Lsize=    1024KiB time=00:00:51.04 bitrate= 164.4kbits/s speed=0.996x elapsed=0:00:51.24    
[libx264 @ 0x55a34c96af00] frame I:6     Avg QP:12.30  size:149674
[libx264 @ 0x55a34c96af00] frame P:324   Avg QP:17.24  size:  2365
[libx264 @ 0x55a34c96af00] frame B:948   Avg QP:21.77  size:   330
[libx264 @ 0x55a34c96af00] consecutive B-frames:  1.0%  0.2%  0.2% 98.6%
[libx264 @ 0x55a34c96af00] mb I  I16..4: 86.4%  2.0% 11.6%
[libx264 @ 0x55a34c96af00] mb P  I16..4:  0.2%  0.1%  0.1%  P16..4:  0.3%  0.1%  0.1%  0.0%  0.0%    skip:99.1%
[libx264 @ 0x55a34c96af00] mb B  I16..4:  0.0%  0.0%  0.0%  B16..8:  0.2%  0.0%  0.0%  direct: 0.0%  skip:99.7%  L0:49.0% L1:45.2% BI: 5.8%
[libx264 @ 0x55a34c96af00] 8x8 transform intra:4.5% inter:4.3%
[libx264 @ 0x55a34c96af00] coded y,uvDC,uvAC intra: 16.7% 23.4% 19.6% inter: 0.1% 0.1% 0.0%
[libx264 @ 0x55a34c96af00] i16 v,h,dc,p: 71% 27%  2%  0%
[libx264 @ 0x55a34c96af00] i8 v,h,dc,ddl,ddr,vr,hd,vl,hu: 13% 20% 61%  1%  1%  2%  0%  1%  1%
[libx264 @ 0x55a34c96af00] i4 v,h,dc,ddl,ddr,vr,hd,vl,hu: 35% 25% 18%  3%  3%  5%  3%  4%  3%
[libx264 @ 0x55a34c96af00] i8c dc,h,v,p: 62% 27% 10%  1%
[libx264 @ 0x55a34c96af00] Weighted P-Frames: Y:0.0% UV:0.0%
[libx264 @ 0x55a34c96af00] kb/s:309.35
Exiting normally, received signal 2.
